<svg width="25" height="24" viewBox="0 0 25 24" fill="none" xmlns="http://www.w3.org/2000/svg">
<path d="M18.5851 14.32C18.3261 14.571 18.2071 14.934 18.2661 15.29L19.1551 20.21C19.2301 20.627 19.0541 21.049 18.7051 21.29C18.3631 21.54 17.9081 21.57 17.5351 21.37L13.1061 19.06C12.9521 18.978 12.7811 18.934 12.6061 18.929H12.3351C12.2411 18.943 12.1491 18.973 12.0651 19.019L7.63514 21.34C7.41614 21.45 7.16814 21.489 6.92514 21.45C6.33314 21.338 5.93814 20.774 6.03514 20.179L6.92514 15.259C6.98414 14.9 6.86514 14.535 6.60614 14.28L2.99514 10.78C2.69314 10.487 2.58814 10.047 2.72614 9.65C2.86014 9.254 3.20214 8.965 3.61514 8.9L8.58514 8.179C8.96314 8.14 9.29514 7.91 9.46514 7.57L11.6551 3.08C11.7071 2.98 11.7741 2.888 11.8551 2.81L11.9451 2.74C11.9921 2.688 12.0461 2.645 12.1061 2.61L12.2151 2.57L12.3851 2.5H12.8061C13.1821 2.539 13.5131 2.764 13.6861 3.1L15.9051 7.57C16.0651 7.897 16.3761 8.124 16.7351 8.179L21.7051 8.9C22.1251 8.96 22.4761 9.25 22.6151 9.65C22.7461 10.051 22.6331 10.491 22.3251 10.78L18.5851 14.32Z" fill="#FF5722"/>
</svg>
